<?xml version="1.0" standalone="no"?>
<!DOCTYPE svg PUBLIC "-//W3C//DTD SVG 20010904//EN"
 "http://www.w3.org/TR/2001/REC-SVG-20010904/DTD/svg10.dtd">
<svg version="1.0" xmlns="http://www.w3.org/2000/svg"
 width="500.000000pt" height="500.000000pt" viewBox="0 0 500.000000 500.000000"
 preserveAspectRatio="xMidYMid meet">
<metadata>
Created by potrace 1.14, written by Peter Selinger 2001-2017
</metadata>
<g transform="translate(0.000000,500.000000) scale(0.100000,-0.100000)"
fill="#000000" stroke="none">
<path d="M0 2500 l0 -2500 2500 0 2500 0 0 2500 0 2500 -2500 0 -2500 0 0
-2500z m2930 1939 c93 -18 209 -81 279 -154 113 -118 130 -183 138 -535 8
-371 -7 -597 -63 -940 -12 -72 -66 -223 -89 -246 -12 -12 -53 -32 -91 -45 -72
-23 -98 -24 -649 -32 -82 -1 -160 -6 -172 -10 -16 -6 -24 -19 -28 -50 -3 -23
-5 -299 -3 -613 2 -466 6 -574 17 -587 10 -13 31 -17 92 -17 64 0 83 -4 98
-19 37 -37 57 -264 25 -295 -27 -28 -64 -30 -344 -18 -151 7 -304 12 -341 12
-37 0 -70 5 -77 12 -8 8 -12 54 -12 140 0 148 -6 140 110 153 36 4 75 13 88
21 l22 14 0 1404 c0 1334 -1 1404 -18 1419 -13 12 -43 17 -116 19 -132 4 -133
5 -142 188 -5 106 -3 139 8 152 21 28 173 40 418 34 118 -4 289 -2 380 3 183
9 386 5 470 -10z"/>
<path d="M2288 4063 c-9 -2 -20 -12 -24 -21 -13 -31 -22 -593 -13 -842 4 -135
8 -268 9 -297 0 -85 -8 -83 294 -83 290 0 340 7 398 59 30 27 32 33 44 147 8
70 13 258 13 459 0 351 -8 456 -43 523 -32 62 -30 62 -361 61 -165 -1 -307 -3
-317 -6z"/>
</g>
</svg>
